<?xml version="1.0" standalone="no"?>
 <!DOCTYPE svg PUBLIC "-//W3C//DTD SVG 1.1//EN" 
 "http://www.w3.org/Graphics/SVG/1.1/DTD/svg11.dtd"> 
<svg xmlns="http://www.w3.org/2000/svg" version="1.1" 
    width="29.7002cm" height="21.0007cm" viewBox="0 0 116930 82680 ">
<title>SVG Picture created as levelshifter-F.Cu.svg date 2017/07/23 10:49:49 </title>
  <desc>Picture generated by PCBNEW </desc>
<g style="fill:#000000; fill-opacity:1;stroke:#000000; stroke-opacity:1;
stroke-linecap:round; stroke-linejoin:round; "
 transform="translate(0 0) scale(1 1)">
</g>
<g style="fill:#000000; fill-opacity:0.0; 
stroke:#000000; stroke-width:-0.000393701; stroke-opacity:1; 
stroke-linecap:round; stroke-linejoin:round;">
</g>
<g style="fill:#000000; fill-opacity:0.0; 
stroke:#000000; stroke-width:78.7402; stroke-opacity:1; 
stroke-linecap:round; stroke-linejoin:round;">
<path d="M61218 39944
L60974 39944
L61106 40094
L61049 40094
L61012 40113
L60993 40131
L60974 40169
L60974 40263
L60993 40300
L61012 40319
L61049 40338
L61162 40338
L61199 40319
L61218 40300
" />
<path d="M60843 40075
L60750 40338
L60656 40075
" />
<path d="M60543 39944
L60300 39944
L60431 40094
L60375 40094
L60337 40113
L60318 40131
L60300 40169
L60300 40263
L60318 40300
L60337 40319
L60375 40338
L60487 40338
L60525 40319
L60543 40300
" />
<path d="M63804 39924
L63992 39924
L64011 40111
L63992 40093
L63954 40074
L63861 40074
L63823 40093
L63804 40111
L63786 40149
L63786 40243
L63804 40280
L63823 40299
L63861 40318
L63954 40318
L63992 40299
L64011 40280
" />
<path d="M63673 39924
L63542 40318
L63411 39924
" />
</g>
<g style="fill:#000000; fill-opacity:0.0; 
stroke:#000000; stroke-width:0; stroke-opacity:1; 
stroke-linecap:round; stroke-linejoin:round;">
</g>
<g style="fill:#000000; fill-opacity:1.0; 
stroke:#000000; stroke-width:0; stroke-opacity:1; 
stroke-linecap:round; stroke-linejoin:round;">
<polyline style="fill-rule:evenodd;"
points="66083,40934
66083,40265
65414,40265
65414,40934
66083,40934
" /> 
</g>
<g style="fill:#000000; fill-opacity:1.0; 
stroke:#000000; stroke-width:669.291; stroke-opacity:1; 
stroke-linecap:round; stroke-linejoin:round;">
</g>
<g style="fill:#000000; fill-opacity:0.0; 
stroke:#000000; stroke-width:669.291; stroke-opacity:1; 
stroke-linecap:round; stroke-linejoin:round;">
<path d="M65748 41600
L65748 41600
" />
<path d="M65748 42600
L65748 42600
" />
<path d="M65748 43600
L65748 43600
" />
</g>
<g style="fill:#000000; fill-opacity:0.0; 
stroke:#000000; stroke-width:0; stroke-opacity:1; 
stroke-linecap:round; stroke-linejoin:round;">
</g>
<g style="fill:#000000; fill-opacity:1.0; 
stroke:#000000; stroke-width:0; stroke-opacity:1; 
stroke-linecap:round; stroke-linejoin:round;">
<polyline style="fill-rule:evenodd;"
points="59083,40934
59083,40265
58414,40265
58414,40934
59083,40934
" /> 
</g>
<g style="fill:#000000; fill-opacity:1.0; 
stroke:#000000; stroke-width:669.291; stroke-opacity:1; 
stroke-linecap:round; stroke-linejoin:round;">
</g>
<g style="fill:#000000; fill-opacity:0.0; 
stroke:#000000; stroke-width:669.291; stroke-opacity:1; 
stroke-linecap:round; stroke-linejoin:round;">
<path d="M58748 41600
L58748 41600
" />
<path d="M58748 42600
L58748 42600
" />
<path d="M58748 43600
L58748 43600
" />
</g>
<g style="fill:#000000; fill-opacity:0.0; 
stroke:#000000; stroke-width:0; stroke-opacity:1; 
stroke-linecap:round; stroke-linejoin:round;">
</g>
<g style="fill:#000000; fill-opacity:1.0; 
stroke:#000000; stroke-width:0; stroke-opacity:1; 
stroke-linecap:round; stroke-linejoin:round;">
<polyline style="fill-rule:evenodd;"
points="61500,43371
61500,43686
62248,43686
62248,43371
61500,43371
" /> 
<polyline style="fill-rule:evenodd;"
points="61500,42623
61500,42938
62248,42938
62248,42623
61500,42623
" /> 
<polyline style="fill-rule:evenodd;"
points="62681,42997
62681,43312
63429,43312
63429,42997
62681,42997
" /> 
<polyline style="fill-rule:evenodd;"
points="61500,41546
61500,41861
62248,41861
62248,41546
61500,41546
" /> 
<polyline style="fill-rule:evenodd;"
points="61500,40798
61500,41113
62248,41113
62248,40798
61500,40798
" /> 
<polyline style="fill-rule:evenodd;"
points="62681,41172
62681,41487
63429,41487
63429,41172
62681,41172
" /> 
<polyline style="fill-rule:evenodd;"
points="60972,43749
61327,43749
61327,43276
60972,43276
60972,43749
" /> 
<polyline style="fill-rule:evenodd;"
points="60972,42883
61327,42883
61327,42410
60972,42410
60972,42883
" /> 
<polyline style="fill-rule:evenodd;"
points="60912,41909
61267,41909
61267,41436
60912,41436
60912,41909
" /> 
<polyline style="fill-rule:evenodd;"
points="60912,41043
61267,41043
61267,40570
60912,40570
60912,41043
" /> 
<polyline style="fill-rule:evenodd;"
points="64067,42170
63712,42170
63712,42643
64067,42643
64067,42170
" /> 
<polyline style="fill-rule:evenodd;"
points="64067,43036
63712,43036
63712,43509
64067,43509
64067,43036
" /> 
<polyline style="fill-rule:evenodd;"
points="63712,41889
64067,41889
64067,41416
63712,41416
63712,41889
" /> 
<polyline style="fill-rule:evenodd;"
points="63712,41023
64067,41023
64067,40550
63712,40550
63712,41023
" /> 
<circle cx="64670" cy="42260" r="275.591" /> 
</g>
<g style="fill:#000000; fill-opacity:1.0; 
stroke:#000000; stroke-width:39.3701; stroke-opacity:1; 
stroke-linecap:round; stroke-linejoin:round;">
</g>
<g style="fill:#000000; fill-opacity:1.0; 
stroke:#000000; stroke-width:551.181; stroke-opacity:1; 
stroke-linecap:round; stroke-linejoin:round;">
</g>
<g style="fill:#000000; fill-opacity:0.0; 
stroke:#000000; stroke-width:551.181; stroke-opacity:1; 
stroke-linecap:round; stroke-linejoin:round;">
<path d="M64670 40260
L64670 40260
" />
</g>
<g style="fill:#000000; fill-opacity:1.0; 
stroke:#000000; stroke-width:0; stroke-opacity:1; 
stroke-linecap:round; stroke-linejoin:round;">
<circle cx="60490" cy="41420" r="275.591" /> 
</g>
<g style="fill:#000000; fill-opacity:1.0; 
stroke:#000000; stroke-width:39.3701; stroke-opacity:1; 
stroke-linecap:round; stroke-linejoin:round;">
</g>
<g style="fill:#000000; fill-opacity:1.0; 
stroke:#000000; stroke-width:551.181; stroke-opacity:1; 
stroke-linecap:round; stroke-linejoin:round;">
</g>
<g style="fill:#000000; fill-opacity:0.0; 
stroke:#000000; stroke-width:551.181; stroke-opacity:1; 
stroke-linecap:round; stroke-linejoin:round;">
<path d="M60490 43420
L60490 43420
" />
</g>
<g style="fill:#000000; fill-opacity:1.0; 
stroke:#000000; stroke-width:0; stroke-opacity:1; 
stroke-linecap:round; stroke-linejoin:round;">
<circle cx="59770" cy="43400" r="275.591" /> 
</g>
<g style="fill:#000000; fill-opacity:1.0; 
stroke:#000000; stroke-width:39.3701; stroke-opacity:1; 
stroke-linecap:round; stroke-linejoin:round;">
</g>
<g style="fill:#000000; fill-opacity:1.0; 
stroke:#000000; stroke-width:551.181; stroke-opacity:1; 
stroke-linecap:round; stroke-linejoin:round;">
</g>
<g style="fill:#000000; fill-opacity:0.0; 
stroke:#000000; stroke-width:551.181; stroke-opacity:1; 
stroke-linecap:round; stroke-linejoin:round;">
<path d="M59770 40400
L59770 40400
" />
</g>
<g style="fill:#000000; fill-opacity:0.0; 
stroke:#000000; stroke-width:275.591; stroke-opacity:1; 
stroke-linecap:round; stroke-linejoin:round;">
<path d="M63890 41653
L63890 42406
" />
<path d="M64670 42260
L64036 42260
" />
<path d="M64036 42260
L63890 42113
" />
<path d="M63890 42113
L63890 41653
" />
<path d="M63890 40786
L64476 40786
" />
<path d="M65290 41600
L65748 41600
" />
<path d="M64476 40786
L65290 41600
" />
<path d="M65748 41600
L65210 41600
" />
<path d="M63598 40786
L63055 41330
" />
<path d="M64396 40786
L63598 40786
" />
<path d="M65210 41600
L64396 40786
" />
<path d="M63890 43273
L63173 43273
" />
<path d="M63173 43273
L63055 43155
" />
<path d="M65748 42600
L65550 42600
" />
<path d="M65550 42600
L64876 43273
" />
<path d="M64876 43273
L63173 43273
" />
<path d="M63173 43273
L63055 43155
" />
<path d="M65748 43600
L65250 43600
" />
<path d="M59208 44060
L58748 43600
" />
<path d="M64790 44060
L59208 44060
" />
<path d="M65250 43600
L64790 44060
" />
<path d="M61090 40806
L60203 40806
" />
<path d="M59410 41600
L58748 41600
" />
<path d="M60203 40806
L59410 41600
" />
<path d="M61874 40955
L61725 40955
" />
<path d="M61725 40955
L61576 40806
" />
<path d="M61576 40806
L61090 40806
" />
<path d="M61874 42780
L61284 42780
" />
<path d="M61284 42780
L61103 42600
" />
<path d="M61103 42600
L58748 42600
" />
<path d="M61874 43529
L61165 43529
" />
<path d="M61165 43529
L61150 43513
" />
<path d="M61874 43529
L60599 43529
" />
<path d="M60599 43529
L60490 43420
" />
<path d="M61874 43529
L59899 43529
" />
<path d="M59899 43529
L59770 43400
" />
<path d="M65748 40600
L65630 40600
" />
<path d="M65630 40600
L65290 40260
" />
<path d="M65290 40260
L64670 40260
" />
<path d="M61874 41704
L61120 41704
" />
<path d="M61120 41704
L60836 41420
" />
<path d="M60836 41420
L60490 41420
" />
<path d="M59770 40400
L58948 40400
" />
<path d="M58948 40400
L58748 40600
" />
</g>
<g style="fill:#FFFFFF; fill-opacity:0.0; 
stroke:#FFFFFF; stroke-width:275.591; stroke-opacity:1; 
stroke-linecap:round; stroke-linejoin:round;">
</g>
<g style="fill:#FFFFFF; fill-opacity:1.0; 
stroke:#FFFFFF; stroke-width:0; stroke-opacity:1; 
stroke-linecap:round; stroke-linejoin:round;">
<circle cx="65748.9" cy="40600" r="68.8976" /> 
</g>
<g style="fill:#FFFFFF; fill-opacity:1.0; 
stroke:#FFFFFF; stroke-width:39.3701; stroke-opacity:1; 
stroke-linecap:round; stroke-linejoin:round;">
</g>
<g style="fill:#FFFFFF; fill-opacity:1.0; 
stroke:#FFFFFF; stroke-width:0; stroke-opacity:1; 
stroke-linecap:round; stroke-linejoin:round;">
<circle cx="65748.9" cy="41600" r="68.8976" /> 
</g>
<g style="fill:#FFFFFF; fill-opacity:1.0; 
stroke:#FFFFFF; stroke-width:39.3701; stroke-opacity:1; 
stroke-linecap:round; stroke-linejoin:round;">
</g>
<g style="fill:#FFFFFF; fill-opacity:1.0; 
stroke:#FFFFFF; stroke-width:0; stroke-opacity:1; 
stroke-linecap:round; stroke-linejoin:round;">
<circle cx="65748.9" cy="42600" r="68.8976" /> 
</g>
<g style="fill:#FFFFFF; fill-opacity:1.0; 
stroke:#FFFFFF; stroke-width:39.3701; stroke-opacity:1; 
stroke-linecap:round; stroke-linejoin:round;">
</g>
<g style="fill:#FFFFFF; fill-opacity:1.0; 
stroke:#FFFFFF; stroke-width:0; stroke-opacity:1; 
stroke-linecap:round; stroke-linejoin:round;">
<circle cx="65748.9" cy="43600" r="68.8976" /> 
</g>
<g style="fill:#FFFFFF; fill-opacity:1.0; 
stroke:#FFFFFF; stroke-width:39.3701; stroke-opacity:1; 
stroke-linecap:round; stroke-linejoin:round;">
</g>
<g style="fill:#FFFFFF; fill-opacity:1.0; 
stroke:#FFFFFF; stroke-width:0; stroke-opacity:1; 
stroke-linecap:round; stroke-linejoin:round;">
<circle cx="58748.9" cy="40600" r="68.8976" /> 
</g>
<g style="fill:#FFFFFF; fill-opacity:1.0; 
stroke:#FFFFFF; stroke-width:39.3701; stroke-opacity:1; 
stroke-linecap:round; stroke-linejoin:round;">
</g>
<g style="fill:#FFFFFF; fill-opacity:1.0; 
stroke:#FFFFFF; stroke-width:0; stroke-opacity:1; 
stroke-linecap:round; stroke-linejoin:round;">
<circle cx="58748.9" cy="41600" r="68.8976" /> 
</g>
<g style="fill:#FFFFFF; fill-opacity:1.0; 
stroke:#FFFFFF; stroke-width:39.3701; stroke-opacity:1; 
stroke-linecap:round; stroke-linejoin:round;">
</g>
<g style="fill:#FFFFFF; fill-opacity:1.0; 
stroke:#FFFFFF; stroke-width:0; stroke-opacity:1; 
stroke-linecap:round; stroke-linejoin:round;">
<circle cx="58748.9" cy="42600" r="68.8976" /> 
</g>
<g style="fill:#FFFFFF; fill-opacity:1.0; 
stroke:#FFFFFF; stroke-width:39.3701; stroke-opacity:1; 
stroke-linecap:round; stroke-linejoin:round;">
</g>
<g style="fill:#FFFFFF; fill-opacity:1.0; 
stroke:#FFFFFF; stroke-width:0; stroke-opacity:1; 
stroke-linecap:round; stroke-linejoin:round;">
<circle cx="58748.9" cy="43600" r="68.8976" /> 
</g>
<g style="fill:#FFFFFF; fill-opacity:1.0; 
stroke:#FFFFFF; stroke-width:39.3701; stroke-opacity:1; 
stroke-linecap:round; stroke-linejoin:round;">
</g>
<g style="fill:#FFFFFF; fill-opacity:1.0; 
stroke:#FFFFFF; stroke-width:0; stroke-opacity:1; 
stroke-linecap:round; stroke-linejoin:round;">
<circle cx="64670" cy="42260" r="68.8976" /> 
</g>
<g style="fill:#FFFFFF; fill-opacity:1.0; 
stroke:#FFFFFF; stroke-width:39.3701; stroke-opacity:1; 
stroke-linecap:round; stroke-linejoin:round;">
</g>
<g style="fill:#FFFFFF; fill-opacity:1.0; 
stroke:#FFFFFF; stroke-width:0; stroke-opacity:1; 
stroke-linecap:round; stroke-linejoin:round;">
<circle cx="64670" cy="40260" r="68.8976" /> 
</g>
<g style="fill:#FFFFFF; fill-opacity:1.0; 
stroke:#FFFFFF; stroke-width:39.3701; stroke-opacity:1; 
stroke-linecap:round; stroke-linejoin:round;">
</g>
<g style="fill:#FFFFFF; fill-opacity:1.0; 
stroke:#FFFFFF; stroke-width:0; stroke-opacity:1; 
stroke-linecap:round; stroke-linejoin:round;">
<circle cx="60490" cy="41420" r="68.8976" /> 
</g>
<g style="fill:#FFFFFF; fill-opacity:1.0; 
stroke:#FFFFFF; stroke-width:39.3701; stroke-opacity:1; 
stroke-linecap:round; stroke-linejoin:round;">
</g>
<g style="fill:#FFFFFF; fill-opacity:1.0; 
stroke:#FFFFFF; stroke-width:0; stroke-opacity:1; 
stroke-linecap:round; stroke-linejoin:round;">
<circle cx="60490" cy="43420" r="68.8976" /> 
</g>
<g style="fill:#FFFFFF; fill-opacity:1.0; 
stroke:#FFFFFF; stroke-width:39.3701; stroke-opacity:1; 
stroke-linecap:round; stroke-linejoin:round;">
</g>
<g style="fill:#FFFFFF; fill-opacity:1.0; 
stroke:#FFFFFF; stroke-width:0; stroke-opacity:1; 
stroke-linecap:round; stroke-linejoin:round;">
<circle cx="59770" cy="43400" r="68.8976" /> 
</g>
<g style="fill:#FFFFFF; fill-opacity:1.0; 
stroke:#FFFFFF; stroke-width:39.3701; stroke-opacity:1; 
stroke-linecap:round; stroke-linejoin:round;">
</g>
<g style="fill:#FFFFFF; fill-opacity:1.0; 
stroke:#FFFFFF; stroke-width:0; stroke-opacity:1; 
stroke-linecap:round; stroke-linejoin:round;">
<circle cx="59770" cy="40400" r="68.8976" /> 
</g>
<g style="fill:#FFFFFF; fill-opacity:1.0; 
stroke:#FFFFFF; stroke-width:39.3701; stroke-opacity:1; 
stroke-linecap:round; stroke-linejoin:round;">
</g>
<g style="fill:#000000; fill-opacity:1.0; 
stroke:#000000; stroke-width:39.3701; stroke-opacity:1; 
stroke-linecap:round; stroke-linejoin:round;">
</g> 
</svg>
